<?xml version="1.0" encoding="UTF-8"?>
<svg width="505px" height="164px" viewBox="0 0 505 164" version="1.1" xmlns="http://www.w3.org/2000/svg" xmlns:xlink="http://www.w3.org/1999/xlink">
    <!-- Generator: Sketch 47 (45396) - http://www.bohemiancoding.com/sketch -->
    <title>logo</title>
    <desc>Created with Sketch.</desc>
    <defs></defs>
    <g id="Page-1" stroke="none" stroke-width="1" fill="none" fill-rule="evenodd">
        <g id="19.10.2017" transform="translate(-293.000000, -334.000000)">
            <g id="logo" transform="translate(293.000000, 334.000000)">
                <path d="M133.948864,163.403636 L135.048409,158.120227 L152.939318,158.120227 L151.839773,163.403636 L174.203409,163.403636 L178.676136,141.571136 L174.203409,141.571136 L203.276136,2.27363636 L151.821136,2.27363636 L124.770455,131.954773 C124.184955,134.589531 123.041035,137.068023 121.415909,139.222955 C120.081121,140.786726 118.103016,141.652146 116.048636,141.571136 L111.585227,163.403636 L133.948864,163.403636 Z M145.671136,135.980227 C146.342045,134.042045 146.963258,132.103864 147.534773,130.165682 L170.830227,18.8134091 L177.539318,18.8134091 L151.821136,141.571136 L143.099318,141.571136 C144.136886,139.79584 144.998262,137.923283 145.671136,135.980227 Z" id="Shape" fill="#FFFFFF" fill-rule="nonzero"></path>
                <path d="M65.0688636,88.1593182 C65.3612201,87.5772125 65.6224962,86.98001 65.8515909,86.3702273 C66.071662,85.7849247 66.258326,85.1876 66.4106818,84.5811364 L80.7234091,16.1577273 C80.7180696,15.8924857 80.7558337,15.6281369 80.8352273,15.375 C80.9138294,15.1216844 80.9515752,14.8574643 80.9470455,14.5922727 L80.9470455,13.0081818 C81.2202075,9.89457629 80.0202436,6.83259951 77.7043182,4.73363636 C75.268046,2.59952594 72.1071291,1.47920097 68.8706818,1.60272727 L32.6415909,1.60272727 L0.0279545455,158.148182 L22.3915909,158.148182 L34.6543182,99.3411364 L49.8615909,99.3411364 C53.1493832,98.8222318 56.2382068,97.4322612 58.8070455,95.3156818 C61.3689681,93.3913136 63.5016034,90.954016 65.0688636,88.1593182 Z M57.0179545,22.4009091 L45.6125,77.3781818 C45.3924258,78.8692765 44.6846613,80.2454852 43.5997727,81.2918182 C42.6427962,82.2252818 41.3584364,82.7470529 40.0215909,82.7454545 L37.9715909,82.7454545 L51.3897727,18.3475 C52.7587531,18.4412698 54.1108567,18.7041788 55.4152273,19.1302273 C56.4228851,19.4493366 57.07368,20.4255291 56.9806818,21.4784091 L57.0179545,22.4009091 Z" id="Shape" fill="#FFFFFF" fill-rule="nonzero"></path>
                <polygon id="Shape" fill="#FFFFFF" fill-rule="nonzero" points="302.971364 2.27363636 285.089773 66.6715909 293.364318 2.27363636 272.118864 2.27363636 263.173409 124.584091 252.438864 158.120227 273.684318 158.120227 324.216818 2.27363636"></polygon>
                <path d="M374.413864,4.73363636 C371.985304,2.20549766 368.59965,0.824150802 365.095682,0.931818182 L344.968409,0.931818182 C340.619924,0.931818182 336.557197,2.57181818 332.780227,5.85181818 C329.25295,8.69113828 326.773868,12.6261893 325.735682,17.0336364 L298.899318,146.043864 C298.872206,146.280611 298.79604,146.509107 298.675682,146.714773 L298.675682,147.646591 C298.675682,150.479318 299.980227,152.964167 302.589318,155.101136 C305.06432,157.210351 308.174004,158.430607 311.422955,158.5675 L330.655682,158.5675 L332.892045,158.343864 C337.204092,158.414912 341.408059,156.99274 344.791364,154.318409 C347.994222,151.994203 350.22714,148.570173 351.0625,144.702045 L362.244318,91.0386364 L339.647727,91.0386364 L329.807727,138.4775 C329.647891,139.389783 329.122922,140.197427 328.354091,140.713864 C327.570996,141.29085 326.703503,141.743455 325.782273,142.055682 C324.496584,141.663951 323.490367,140.657734 323.098636,139.372045 L323.322273,138.253864 L347.475,21.7765909 C347.684128,20.7329493 348.234938,19.7887027 349.040455,19.0929545 C349.749436,18.5129217 350.597264,18.1275453 351.500455,17.9747727 C352.207616,18.1182799 352.85624,18.4685369 353.364091,18.9811364 C353.905122,19.55213 354.18808,20.3201595 354.146818,21.1056818 L354.146818,21.7765909 L347.437727,53.9709091 L370.025,53.9709091 L377.628636,17.0802273 C377.624422,16.8150555 377.662161,16.5508849 377.740455,16.2975 C377.819687,16.0443267 377.857448,15.7800043 377.852273,15.5147727 L377.852273,14.1263636 C378.100371,10.6480493 376.849008,7.22969206 374.413864,4.73363636 Z" id="Shape" fill="#FFFFFF" fill-rule="nonzero"></path>
                <path d="M109.339545,158.120227 L130.771364,2.27363636 L97.7104545,2.27363636 L54.3343182,158.120227 L75.5797727,158.120227 L84.7488636,123.642955 L93.2470455,123.642955 L88.3270455,158.120227 L109.339545,158.120227 Z M89.2215909,106.245909 L106.926136,38.0461364 L95.9679545,106.245909 L89.2215909,106.245909 Z" id="Shape" fill="#FFFFFF" fill-rule="nonzero"></path>
                <polygon id="Shape" fill="#FFFFFF" fill-rule="nonzero" points="245.739091 2.27363636 217.784545 74.7225 232.768182 2.27363636 212.417273 2.27363636 179.999318 158.120227 200.564545 158.120227 229.637273 81.4222727 213.535455 158.120227 233.886364 158.120227 266.304318 2.27363636"></polygon>
                <path d="M357.315,158.120227 L389.732955,2.27363636 L424.834545,2.27363636 L421.48,18.8227273 L408.742045,18.8227273 L399.349318,63.7643182 L412.096591,63.7643182 L408.742045,80.0897727 L395.994773,80.0897727 L379.669318,158.120227 L357.305682,158.120227 L357.315,158.120227 Z M429.540227,158.120227 L440.722045,158.120227 L467.334773,80.7793182 L451.232955,158.120227 L472.0125,158.120227 L504.439773,2.27363636 L479.3925,2.27363636 L452.118182,76.9775 L455.696364,2.29227273 L430.872727,2.29227273 L398.454773,158.120227 L419.252955,158.120227 L435.354773,80.9843182 L429.540227,158.120227 Z" id="Shape" fill="#FFCB05"></path>
            </g>
        </g>
    </g>
</svg>